<svg width="95" height="40" viewBox="0 0 95 40" fill="none" xmlns="http://www.w3.org/2000/svg">
<path d="M35.3619 35.5844H28.9381L32.7975 22.4156H29.5339L24.1721 40H17.7483L28.3682 4.38961H34.792L31.1657 16.8831H34.4294L39.584 0H46.0077L35.3619 35.5844Z" fill="#E02041"/>
<path d="M46.5257 4.38962H58.7775L56.9385 10H51.3695L49.3491 16.8571H54.944L53.1826 22.3896H47.7173L45.5674 29.6364H51.5249L49.375 35.5584H37.3563L46.5257 4.38962Z" fill="#E02041"/>
<path d="M56.9644 40H50.4888L60.8238 4.38962H72.5835C73.9822 4.38962 74.9147 4.77923 75.4068 5.58442C75.899 6.38962 75.9767 7.29871 75.6658 8.33767L72.5576 18.9351C72.4021 19.4026 72.1172 19.8182 71.6769 20.2078C71.2365 20.5974 70.6149 20.7792 69.8119 20.7792C70.3041 20.8571 70.7185 21.1688 71.0552 21.7143C71.3919 22.2597 71.3919 23.0909 71.0552 24.2078L67.7138 35.5844H61.2641L64.8387 23.3507C64.9164 23.0909 64.9423 22.8571 64.8646 22.6234C64.7869 22.3896 64.5537 22.2857 64.1652 22.2857H62.0153L56.9644 40ZM65.5639 17.6883C65.8748 17.6883 66.1597 17.6104 66.4446 17.4546C66.7036 17.2987 66.9108 16.987 67.0663 16.4935L68.7758 10.7013C69.0348 9.84416 68.6981 9.4026 67.7915 9.4026H65.7711L63.3363 17.6883H65.5639Z" fill="#E02041"/>
<path d="M91.4663 4.38962C92.4765 4.38962 93.2018 4.75325 93.668 5.48053C94.1343 6.2078 94.2379 7.03897 93.9788 7.94806L86.8298 32.2857C86.4413 33.5844 85.7678 34.4416 84.8353 34.9091C83.9028 35.3766 82.8926 35.5844 81.8307 35.5844H74.1636C73.6196 35.5844 73.1275 35.4805 72.6612 35.2987C72.195 35.1169 71.8324 34.8312 71.5215 34.4675C71.2107 34.1039 71.0294 33.6364 70.9258 33.1169C70.8222 32.5974 70.874 32 71.0812 31.3247L78.1007 7.42858C78.3338 6.51949 78.8001 5.76624 79.4994 5.22078C80.1988 4.67533 81.0795 4.38962 82.1415 4.38962H91.4663ZM84.7317 9.4026C84.4209 9.4026 84.1878 9.48052 84.0583 9.61039C83.9028 9.76624 83.8251 9.94806 83.7474 10.1558L78.023 29.5844C77.8676 30.1039 78.0748 30.3636 78.6188 30.3636H80.2765C80.8205 30.3636 81.1572 30.1039 81.3126 29.5844L87.0111 10.1818C87.1406 9.63637 86.9334 9.37663 86.3636 9.37663H84.7317V9.4026Z" fill="#E02041"/>
<path d="M11.8374 7.79222H16.0077C16.5516 7.79222 16.8883 7.94806 17.0438 8.23377C17.1992 8.51949 17.2251 8.85715 17.1215 9.27273L16.1372 12.6494C16.0854 12.8571 15.9559 13.039 15.7486 13.1948C15.5414 13.3766 15.2306 13.4286 14.8421 13.4286C15.0493 13.4286 15.2047 13.4805 15.3083 13.5584C15.4378 13.6364 15.5155 13.7403 15.5673 13.8701C15.6191 14 15.645 14.1299 15.645 14.2857C15.645 14.4416 15.6191 14.5974 15.5932 14.7273L14.6607 17.8182C14.5571 18.1818 14.3499 18.4675 14.0909 18.6753C13.8319 18.8831 13.4174 18.987 12.9253 18.987H8.54779L11.8374 7.79222ZM12.2518 17.1429C12.3554 17.1429 12.459 17.1169 12.5367 17.0909C12.6145 17.039 12.6922 16.9351 12.744 16.7792L13.4174 14.5195C13.4692 14.3636 13.4692 14.2597 13.4174 14.1559C13.3656 14.052 13.262 14.026 13.1066 14.026H12.3813L11.4489 17.1688H12.2518V17.1429ZM13.521 12.5195C13.6765 12.5195 13.806 12.4935 13.8837 12.4416C13.9614 12.3896 14.0391 12.2857 14.0909 12.1039L14.6866 10.0779C14.7384 9.92209 14.7384 9.81819 14.7125 9.74027C14.6607 9.66234 14.5571 9.6104 14.4017 9.6104H13.6505L12.7958 12.5195H13.521Z" fill="#41414D"/>
<path d="M18.3647 7.79222H22.7681L22.1723 9.81819H20.1001L19.3749 12.2857H21.3952L20.7995 14.2857H18.7791L18.002 16.8831H20.1519L19.3749 19.013H15.0751L18.3647 7.79222Z" fill="#41414D"/>
<path d="M7.14904 20.961L6.55329 22.987H4.97325L2.30531 32.1558H0L2.71975 22.961H1.1138L1.70955 20.9351H7.14904V20.961Z" fill="#41414D"/>
<path d="M10.2833 32.1558H7.97798L9.35081 27.4285H8.1852L6.78648 32.1558H4.48117L7.77077 20.961H10.0761L8.78096 25.4545H9.94656L11.2676 20.961H13.5729L10.2833 32.1558Z" fill="#41414D"/>
<path d="M14.2981 20.961H18.7015L18.1057 22.9869H16.0335L15.3083 25.4545H17.3287L16.7329 27.4545H14.7125L13.9354 30.0519H16.0853L15.3083 32.1818H11.0085L14.2981 20.961Z" fill="#41414D"/>
</svg>
