<svg width="240" height="102" viewBox="0 0 240 102" fill="none" xmlns="http://www.w3.org/2000/svg">
<path d="M90.1728 90.7403H73.7922L83.6338 57.1597H75.3114L61.6388 102H45.2582L72.3391 11.1935H88.7197L79.4726 43.0519H87.795L100.939 0H117.32L90.1728 90.7403Z" fill="#F0F0F5"/>
<path d="M118.641 11.1935H149.883L145.193 25.5H130.992L125.84 42.9858H140.107L135.616 57.0935H121.679L116.197 75.5728H131.389L125.906 90.6741H95.2588L118.641 11.1935Z" fill="#F0F0F5"/>
<path d="M145.259 102H128.746L155.101 11.1935H185.088C188.655 11.1935 191.033 12.187 192.288 14.2403C193.542 16.2935 193.741 18.6117 192.948 21.2611L185.022 48.2845C184.626 49.4767 183.899 50.5364 182.776 51.5299C181.653 52.5234 180.068 52.987 178.021 52.987C179.275 53.1857 180.332 53.9806 181.191 55.3715C182.05 56.7624 182.05 58.8819 181.191 61.7299L172.67 90.7403H156.224L165.339 59.5442C165.537 58.8819 165.603 58.2857 165.405 57.6896C165.207 57.0935 164.612 56.8286 163.621 56.8286H158.139L145.259 102ZM167.188 45.1052C167.981 45.1052 168.707 44.9065 169.434 44.5091C170.094 44.1117 170.623 43.3169 171.019 42.0585L175.378 27.2883C176.039 25.1026 175.18 23.9767 172.869 23.9767H167.717L161.508 45.1052H167.188Z" fill="#F0F0F5"/>
<path d="M233.239 11.1935C235.815 11.1935 237.665 12.1208 238.854 13.9754C240.042 15.8299 240.307 17.9494 239.646 20.2676L221.416 82.3286C220.425 85.6403 218.708 87.826 216.33 89.0182C213.952 90.2104 211.376 90.7403 208.668 90.7403H189.117C187.73 90.7403 186.475 90.4754 185.286 90.0117C184.097 89.5481 183.173 88.8195 182.38 87.8923C181.587 86.965 181.125 85.7728 180.861 84.4481C180.597 83.1234 180.729 81.6 181.257 79.878L199.157 18.9429C199.751 16.6247 200.94 14.7039 202.724 13.313C204.507 11.9221 206.753 11.1935 209.461 11.1935H233.239ZM216.066 23.9767C215.273 23.9767 214.679 24.1754 214.349 24.5065C213.952 24.9039 213.754 25.3676 213.556 25.8974L198.959 75.4403C198.562 76.765 199.091 77.4273 200.478 77.4273H204.705C206.092 77.4273 206.951 76.765 207.347 75.4403L221.878 25.9637C222.209 24.5728 221.68 23.9104 220.227 23.9104H216.066V23.9767Z" fill="#F0F0F5"/>
<g opacity="0.5">
<path d="M30.1853 19.8701H40.8195C42.2066 19.8701 43.0652 20.2675 43.4615 20.9961C43.8578 21.7247 43.9239 22.5857 43.6597 23.6454L41.1497 32.2558C41.0176 32.7857 40.6874 33.2493 40.159 33.6467C39.6306 34.1104 38.838 34.2428 37.8472 34.2428C38.3756 34.2428 38.7719 34.3753 39.0361 34.574C39.3664 34.7727 39.5645 35.0377 39.6966 35.3688C39.8287 35.7 39.8948 36.0312 39.8948 36.4286C39.8948 36.826 39.8287 37.2234 39.7627 37.5545L37.3848 45.4364C37.1206 46.3636 36.5922 47.0922 35.9317 47.6221C35.2712 48.1519 34.2144 48.4169 32.9594 48.4169H21.7968L30.1853 19.8701ZM31.2421 43.7143C31.5063 43.7143 31.7705 43.648 31.9687 43.5818C32.1668 43.4493 32.365 43.1844 32.4971 42.787L34.2144 37.0247C34.3465 36.6273 34.3465 36.3623 34.2144 36.0974C34.0823 35.8325 33.8181 35.7662 33.4218 35.7662H31.5723L29.1945 43.7805H31.2421V43.7143ZM34.4786 31.9247C34.8749 31.9247 35.2051 31.8584 35.4033 31.726C35.6015 31.5935 35.7996 31.3286 35.9317 30.8649L37.4509 25.6987C37.583 25.3013 37.583 25.0364 37.5169 24.8376C37.3848 24.6389 37.1206 24.5065 36.7243 24.5065H34.8088L32.6292 31.9247H34.4786Z" fill="white"/>
<path d="M46.8299 19.8701H58.0586L56.5394 25.0364H51.2553L49.4059 31.3286H54.5579L53.0387 36.4286H47.8867L45.9052 43.0519H51.3875L49.4059 48.4831H38.4415L46.8299 19.8701Z" fill="white"/>
<path d="M18.2301 53.4506L16.7109 58.6169H12.6818L5.87854 81.9974H0L6.93535 58.5506H2.84019L4.35936 53.3844H18.2301V53.4506Z" fill="white"/>
<path d="M26.2224 81.9972H20.3438L23.8445 69.9427H20.8722L17.3055 81.9972H11.4269L19.8154 53.4505H25.6939L22.3914 64.9089H25.3637L28.7323 53.4505H34.6108L26.2224 81.9972Z" fill="white"/>
<path d="M36.4602 53.4505H47.6889L46.1697 58.6167H40.8856L39.0362 64.9089H44.1882L42.669 70.0089H37.517L35.5355 76.6323H41.0177L39.0362 82.0635H28.0717L36.4602 53.4505Z" fill="white"/>
</g>
</svg>
